<?xml version="1.0" encoding="utf-8"?>
<!-- Designed by Vexels.com - 2020 All Rights Reserved - https://vexels.com/terms-and-conditions/  -->
<svg version="1.1" id="Layer_1" xmlns="http://www.w3.org/2000/svg" xmlns:xlink="http://www.w3.org/1999/xlink" x="0px" y="0px"
	 viewBox="0 0 1200 1200" enable-background="new 0 0 1200 1200" xml:space="preserve">
<g>
	<path fill="none" d="M577.474,1007.32c-16.297,21.297-31.76,39.491-46.196,55.016
		C545.714,1046.81,561.176,1028.617,577.474,1007.32L577.474,1007.32z"/>
	<path fill="none" d="M599.083,1012.539c1.77,0.389,3.576,0.783,5.406,1.179C602.66,1013.322,600.854,1012.928,599.083,1012.539z"/>
	<path fill="none" d="M604.489,1013.718c1.83,0.396,3.683,0.795,5.547,1.195C608.172,1014.513,606.319,1014.114,604.489,1013.718z"
		/>
	<path fill="none" d="M632.689,1019.768c-3.324-0.723-6.87-1.484-10.534-2.267C625.818,1018.284,629.365,1019.045,632.689,1019.768
		L632.689,1019.768z"/>
	<path fill="none" d="M619.278,1036.092c-2.179,2.558-4.329,5.035-6.448,7.433C614.948,1041.127,617.098,1038.65,619.278,1036.092z"
		/>
	<path fill="none" d="M759.653,576.889L759.653,576.889c1.315,0.329,2.685,0.667,4.102,1.013
		C762.338,577.556,760.968,577.218,759.653,576.889z"/>
	<path fill="none" d="M831.226,570.662L831.226,570.662c-3.052-0.733-6.369-1.511-9.877-2.323
		C824.857,569.151,828.175,569.929,831.226,570.662z"/>
	<path fill="none" d="M844.792,316.64c-4.082-0.854-8.225-1.729-12.426-2.618c-9.53-2.017-19.298-4.08-28.995-6.019
		c9.697,1.94,19.465,4.003,28.995,6.019C836.567,314.91,840.71,315.786,844.792,316.64z"/>
	<path fill="none" d="M802.161,321.907c-6.399,69.982-18.097,146.927-37.519,233.285l0.001,0
		C784.064,468.833,795.761,391.888,802.161,321.907z"/>
	<path fill="none" d="M763.754,577.901c2.833,0.691,5.856,1.411,9.006,2.15C769.61,579.312,766.588,578.592,763.754,577.901z"/>
	<path fill="none" d="M510.847,1127.702c1.299-0.652,2.651-1.35,4.054-2.099C513.498,1126.352,512.146,1127.051,510.847,1127.702z"
		/>
	<path fill="none" d="M529.936,1116.78c-3.128,1.992-6.107,3.797-8.921,5.422C523.83,1120.577,526.808,1118.772,529.936,1116.78z"/>
	<path fill="none" d="M544.824,1106.61c-2.303,1.678-4.545,3.261-6.731,4.765C540.279,1109.871,542.521,1108.287,544.824,1106.61z"
		/>
	<path fill="none" d="M518.266,1123.762c-1.149,0.641-2.277,1.261-3.365,1.841C515.989,1125.023,517.118,1124.403,518.266,1123.762z
		"/>
	<path fill="none" d="M556.645,1097.583c-2.712,2.164-5.363,4.219-7.947,6.161C551.281,1101.802,553.933,1099.747,556.645,1097.583z
		"/>
	<path fill="none" d="M596.457,1011.959c-6.924-1.537-13.17-2.99-17.933-4.247c-0.277-0.073-0.529-0.188-0.788-0.294
		c0.258,0.106,0.51,0.221,0.787,0.294C583.287,1008.969,589.533,1010.422,596.457,1011.959z"/>
	<path fill="none" d="M782.539,582.32c3.348,0.769,6.766,1.548,10.193,2.327C789.305,583.868,785.887,583.089,782.539,582.32z"/>
	<path fill="none" d="M609.79,992.083c1.973,0.426,3.969,0.856,5.98,1.286C613.759,992.939,611.763,992.51,609.79,992.083z"/>
	<path fill="none" d="M809.854,588.541c3.075,0.703,6.045,1.387,8.867,2.044C815.9,589.928,812.93,589.244,809.854,588.541z"/>
	<path fill="none" d="M751.31,813.327c-1.263-0.301-2.677-0.627-4.158-0.964C748.634,812.7,750.047,813.026,751.31,813.327
		L751.31,813.327z"/>
	<path fill="none" d="M637.711,918.996c2.884-4.862,5.739-9.836,8.563-14.923C643.449,909.16,640.595,914.135,637.711,918.996z"/>
	<path fill="none" d="M722.94,714.22c1.795-6.039,3.556-12.038,5.282-17.995C726.495,702.182,724.735,708.181,722.94,714.22
		c-5.692,19.149-11.648,37.542-17.823,55.269C711.292,751.763,717.248,733.369,722.94,714.22z"/>
	<path fill="none" d="M825.585,592.202c-1.732-0.414-3.565-0.847-5.459-1.289C822.019,591.356,823.853,591.788,825.585,592.202
		L825.585,592.202z"/>
	<path fill="none" d="M647.543,1000.269L647.543,1000.269c-2.502-0.578-5.301-1.203-8.307-1.862
		C642.243,999.066,645.041,999.691,647.543,1000.269z"/>
	<path fill="none" d="M821.866,605.876c-4.883,17.832-10.061,35.871-15.564,54.124C811.806,641.747,816.984,623.707,821.866,605.876
		z"/>
	<path fill="none" d="M693.734,800.696L693.734,800.696c2.23,0.522,4.596,1.061,7.059,1.612
		C698.33,801.757,695.965,801.217,693.734,800.696z"/>
	<path fill="none" d="M633.361,926.203c-1.457,2.374-2.922,4.719-4.393,7.036c-6.371,10.029-12.658,19.594-18.853,28.723
		c6.195-9.129,12.482-18.694,18.853-28.723C630.44,930.922,631.905,928.577,633.361,926.203z"/>
	<path fill="none" d="M728.434,808.281c-1.269-0.271-2.552-0.545-3.843-0.82c-2.712-0.578-5.439-1.159-8.144-1.739
		c2.704,0.579,5.431,1.161,8.143,1.739C725.881,807.736,727.164,808.01,728.434,808.281z"/>
	<path fill="none" d="M600.892,975.332c-3.05,4.35-6.078,8.595-9.08,12.738c2.394,0.563,4.989,1.153,7.703,1.76
		c-2.714-0.607-5.308-1.197-7.702-1.76C594.814,983.927,597.841,979.682,600.892,975.332z"/>
	<path fill="#181918" d="M568.578,1148.014c38.816,9.206,86.088-13.323,136.765-73.172
		c83.639-98.78,149.746-266.244,179.478-431.507c-2.942,9.981-5.953,20.002-9.115,30.104
		C760.055,1043.09,617.515,1128.9,568.578,1148.014z"/>
	<path fill="#181918" d="M802.577,564.051c3.931,0.892,7.797,1.77,11.525,2.622c2.485,0.568,4.908,1.124,7.247,1.666
		c3.508,0.812,6.825,1.591,9.877,2.323c7.063-27.547,13.422-54.559,19.149-81.012c2.29-10.581,4.48-21.073,6.573-31.473
		c9.419-46.801,16.886-91.753,22.827-134.704c-7.365-1.274-15.016-2.748-22.927-4.349c-3.955-0.8-7.975-1.632-12.057-2.485
		c-4.082-0.854-8.225-1.729-12.426-2.618c-9.53-2.017-19.298-4.08-28.995-6.019c-0.38,4.604-0.784,9.239-1.21,13.904
		c-6.399,69.982-18.097,146.927-37.518,233.285C774.905,557.768,788.905,560.948,802.577,564.051z"/>
	<path fill="#181918" d="M622.878,994.888c5.757,1.228,11.346,2.421,16.358,3.519c3.007,0.659,5.805,1.284,8.307,1.862
		c6.088-8.3,12.312-17.178,18.637-26.665c2.108-3.162,4.228-6.393,6.357-9.692c3.194-4.949,6.411-10.052,9.646-15.315
		c2.156-3.508,4.321-7.088,6.492-10.739c4.343-7.302,8.713-14.892,13.1-22.779c3.29-5.915,6.59-11.997,9.895-18.25
		c2.203-4.169,4.409-8.413,6.616-12.735c2.207-4.322,4.415-8.721,6.622-13.199c8.831-17.91,17.659-37.074,26.402-57.568
		c-1.263-0.301-2.677-0.627-4.158-0.964c-4.311-0.98-9.43-2.093-14.956-3.277c-1.237-0.265-2.493-0.534-3.763-0.805
		c-1.27-0.271-2.552-0.545-3.844-0.82c-2.712-0.578-5.439-1.159-8.143-1.739c-5.409-1.159-10.727-2.311-15.653-3.414
		c-2.464-0.551-4.829-1.091-7.059-1.612c-12.221,31.92-25.266,61.235-39.08,87.783c-2.763,5.31-5.557,10.508-8.381,15.595
		c-2.824,5.087-5.678,10.061-8.563,14.923c-1.442,2.431-2.892,4.833-4.349,7.207c-1.457,2.374-2.921,4.719-4.393,7.036
		c-6.371,10.029-12.658,19.594-18.853,28.723c-3.098,4.564-6.172,9.02-9.223,13.37c-3.05,4.35-6.078,8.595-9.08,12.738
		c2.394,0.563,4.988,1.153,7.702,1.76c3.27,0.731,6.725,1.487,10.276,2.254c1.973,0.426,3.969,0.856,5.98,1.286
		C618.135,993.876,620.512,994.383,622.878,994.888z"/>
	<path fill="#181918" d="M705.117,769.489c-1.184,3.4-2.363,6.817-3.564,10.165c8.145,1.863,17.892,3.944,27.457,5.983
		c5.903,1.258,11.642,2.482,16.759,3.605c3.838,0.842,7.326,1.627,10.272,2.327c0.982,0.233,1.904,0.457,2.758,0.671
		c0.398,0.1,0.757,0.269,1.134,0.408c3.677-9.057,7.333-18.357,10.964-27.904c7.261-19.096,14.416-39.186,21.417-60.32
		c3.501-10.567,6.963-21.395,10.379-32.491c1.231-3.995,2.412-7.958,3.61-11.933c5.503-18.252,10.682-36.292,15.564-54.124
		c1.25-4.565,2.505-9.135,3.718-13.673c-1.732-0.414-3.565-0.846-5.459-1.289c-0.465-0.109-0.931-0.218-1.404-0.328
		c-2.822-0.657-5.792-1.341-8.867-2.044c-3.864-0.884-7.883-1.797-11.982-2.728c-1.711-0.388-3.428-0.777-5.141-1.167
		c-3.427-0.779-6.845-1.558-10.193-2.327c-3.348-0.769-6.628-1.528-9.779-2.268c-3.15-0.74-6.172-1.46-9.006-2.15
		c-1.417-0.345-2.786-0.683-4.102-1.013c-7.66,32.505-16.403,66.324-26.354,101.585c-1.659,5.877-3.351,11.794-5.077,17.751
		c-1.727,5.958-3.487,11.956-5.282,17.995C717.248,733.369,711.292,751.763,705.117,769.489z"/>
	<path fill="#181918" d="M805.051,285.667c10.627,2.104,21.297,4.321,31.7,6.521c16.357,3.459,31.806,6.716,45.964,9.181
		c10.56-82.189,15.677-156.731,18.559-222.564c-5.899-1.132-11.792-2.278-17.676-3.428c-26.434-5.166-52.778-10.765-79.144-16.265
		C809.023,127.739,810.785,201.675,805.051,285.667z"/>
	<path fill="#181918" d="M823.854,678.696c-64.413,209.165-145.046,326.129-201.348,387.418
		c-26.954,29.344-52.287,50.355-73.608,64.821c38.775-8.77,187.246-85.818,305.681-464.356
		c73.489-234.885,85.911-436.539,91.433-580.028c-7.593-1.112-15.17-2.353-22.733-3.684
		C916.356,238.248,896.943,441.352,823.854,678.696z"/>
	<path fill="#181918" d="M701.715,707.665c87.296-293.668,91.621-488.659,80.237-653.194c-7.404-1.513-14.81-3.014-22.225-4.472
		c4.255,67.109,5.648,139.035,0.038,220.112c-20.599-7.844-41.039-16.082-61.264-25.126c-0.273,0.238-0.544,0.446-0.816,0.685
		c7.106,23.211,12.6,49.361,16.327,78.312c10.578,82.159,6.803,176.618-8.285,271.973c-0.665,4.204-1.351,8.41-2.06,12.617
		c-0.151,0.893-0.292,1.785-0.445,2.677c-0.83,4.861-1.697,9.722-2.584,14.583c-0.309,1.69-0.625,3.379-0.941,5.068
		c-0.669,3.585-1.354,7.168-2.054,10.751c-0.311,1.589-0.615,3.179-0.932,4.768c-0.945,4.749-1.918,9.495-2.917,14.237
		c-0.342,1.622-0.697,3.242-1.045,4.863c-0.742,3.459-1.497,6.915-2.268,10.367c-0.411,1.841-0.821,3.681-1.24,5.521
		c-0.975,4.288-1.97,8.571-2.988,12.847c-0.116,0.482-0.224,0.965-0.339,1.446c0,0,0.002-0.001,0.003-0.001
		c-19.888,83.131-47.729,163.849-81.456,234.469c1.933-2.98,3.872-5.994,5.821-9.062
		C645.182,866.178,675.945,794.366,701.715,707.665z"/>
	<path fill="#181918" d="M518.266,1123.762c0.899-0.502,1.814-1.02,2.749-1.56c2.814-1.625,5.793-3.43,8.921-5.422
		c2.616-1.665,5.336-3.465,8.157-5.405c2.186-1.504,4.428-3.087,6.731-4.765c1.274-0.928,2.565-1.883,3.873-2.866
		c2.584-1.942,5.235-3.996,7.947-6.161c6.58-5.252,13.519-11.163,20.774-17.828c2.313-2.125,4.658-4.326,7.032-6.604
		c7.123-6.835,14.513-14.371,22.121-22.671c1.026-1.12,2.061-2.259,3.105-3.418c1.043-1.159,2.095-2.338,3.154-3.537
		c2.119-2.398,4.269-4.875,6.448-7.433c4.359-5.116,8.836-10.555,13.411-16.325c-3.324-0.723-6.871-1.484-10.534-2.267
		c-1.221-0.261-2.455-0.524-3.699-0.79c-2.803-0.598-5.623-1.199-8.42-1.799c-1.864-0.4-3.717-0.799-5.547-1.195
		c-1.829-0.396-3.636-0.79-5.406-1.179c-0.885-0.195-1.761-0.388-2.627-0.58c-6.924-1.537-13.17-2.99-17.934-4.247
		c-0.277-0.073-0.529-0.188-0.787-0.294c-0.086-0.035-0.174-0.065-0.262-0.098c-16.298,21.297-31.76,39.491-46.196,55.016
		c-2.063,2.218-4.104,4.381-6.124,6.491c-16.16,16.881-30.944,30.359-44.068,41.081c-5.48,5.003-10.955,9.652-16.423,13.9
		l46.184,3.895c1.299-0.652,2.651-1.35,4.054-2.099C515.989,1125.023,517.118,1124.403,518.266,1123.762z"/>
	<path fill="#181918" d="M497.073,1055.065c132.85-161.044,220.826-498.693,191.311-727.935
		C661.065,114.943,543.411,91.406,429.34,252.859C320.949,406.271,244.723,686.961,254.899,899.23
		C265.815,1126.898,371.755,1206.978,497.073,1055.065z M564.865,305.704c30.768-41.87,61.086-33.664,67.44,19.753
		c6.475,54.436-14.446,133.768-46.429,175.703c-31.535,41.348-61.117,29.532-66.381-24.947
		C514.329,422.729,534.513,347.009,564.865,305.704z M546.6,609.063c31.657-41.108,62.754-28.469,69.161,29.773
		c6.533,59.393-15.14,142.105-48.085,183.124c-32.469,40.426-62.777,23.873-68.025-35.407
		C494.501,728.393,515.385,649.597,546.6,609.063z M435.035,320.303c28.361-39.651,55.462-31.654,60.272,19.142
		c4.897,51.715-15.191,126.91-44.588,166.614c-29.008,39.177-55.426,27.931-59.29-23.819
		C387.633,431.387,407.038,359.444,435.035,320.303z M296.335,774.441c-2.973-53.41,16.611-125.91,44.011-163.198
		c27.758-37.774,53.674-26.099,57.622,27.378c4.018,54.445-16.266,130.248-45.019,167.948
		C324.577,843.771,299.36,828.795,296.335,774.441z M414.801,1012.3c-30.304,37.731-57.623,19.266-61.337-39.765
		c-3.646-57.954,16.831-134.53,46.032-172.449c29.6-38.438,57.684-23.665,62.436,34.453
		C466.775,893.767,445.534,974.035,414.801,1012.3z M437.605,658.101c-1.911-23.845,6.892-56.797,19.715-73.861
		c12.899-17.165,25.117-11.956,27.236,11.897c2.136,24.045-6.805,57.663-19.914,74.819
		C451.61,688.01,439.53,682.136,437.605,658.101z"/>
</g>
</svg>
